<mxfile host="65bd71144e">
    <diagram id="aHG1m4o8wAllWOqiuQ4b" name="Page-1">
        <mxGraphModel dx="1435" dy="904" grid="1" gridSize="10" guides="1" tooltips="1" connect="1" arrows="1" fold="1" page="0" pageScale="1" pageWidth="827" pageHeight="1169" math="0" shadow="0">
            <root>
                <mxCell id="0"/>
                <mxCell id="1" parent="0"/>
                <mxCell id="SDYkrErsh-1BL4w2dOnM-1" value="Atleta" style="swimlane;fontStyle=1;align=center;verticalAlign=top;childLayout=stackLayout;horizontal=1;startSize=26;horizontalStack=0;resizeParent=1;resizeParentMax=0;resizeLast=0;collapsible=1;marginBottom=0;" parent="1" vertex="1">
                    <mxGeometry x="-380" y="120" width="510" height="310" as="geometry"/>
                </mxCell>
                <mxCell id="SDYkrErsh-1BL4w2dOnM-2" value="-nome: String&#10;-cognome: String&#10;-numMaglia: String&#10;-dataNascita: GregorianCalendar" style="text;strokeColor=none;fillColor=none;align=left;verticalAlign=top;spacingLeft=4;spacingRight=4;overflow=hidden;rotatable=0;points=[[0,0.5],[1,0.5]];portConstraint=eastwest;" parent="SDYkrErsh-1BL4w2dOnM-1" vertex="1">
                    <mxGeometry y="26" width="510" height="84" as="geometry"/>
                </mxCell>
                <mxCell id="SDYkrErsh-1BL4w2dOnM-3" value="" style="line;strokeWidth=1;fillColor=none;align=left;verticalAlign=middle;spacingTop=-1;spacingLeft=3;spacingRight=3;rotatable=0;labelPosition=right;points=[];portConstraint=eastwest;" parent="SDYkrErsh-1BL4w2dOnM-1" vertex="1">
                    <mxGeometry y="110" width="510" height="8" as="geometry"/>
                </mxCell>
                <mxCell id="SDYkrErsh-1BL4w2dOnM-4" value="+Atleta(nome: String, cognome: String, numMaglia: String, dataNascita: GregorianCalendar)&#10;&#10;+getCF(): String&#10;+getNome(): String&#10;+getCognome(): String&#10;+getNumMaglia(): String&#10;+getDataNascita(): GregorianCalendar&#10;&#10;-setCF(CF: String): void&#10;+setNome(nome: String): void&#10;+setCognome(cognome: String): void&#10;+setNumMaglia(numMaglia: String): void&#10;-setDataNascita(dataNascita: GregorianCalendar): void" style="text;strokeColor=none;fillColor=none;align=left;verticalAlign=top;spacingLeft=4;spacingRight=4;overflow=hidden;rotatable=0;points=[[0,0.5],[1,0.5]];portConstraint=eastwest;" parent="SDYkrErsh-1BL4w2dOnM-1" vertex="1">
                    <mxGeometry y="118" width="510" height="192" as="geometry"/>
                </mxCell>
                <mxCell id="SDYkrErsh-1BL4w2dOnM-5" value="Squadra" style="swimlane;fontStyle=1;align=center;verticalAlign=top;childLayout=stackLayout;horizontal=1;startSize=26;horizontalStack=0;resizeParent=1;resizeParentMax=0;resizeLast=0;collapsible=1;marginBottom=0;" parent="1" vertex="1">
                    <mxGeometry x="490" y="120" width="280" height="230" as="geometry"/>
                </mxCell>
                <mxCell id="SDYkrErsh-1BL4w2dOnM-6" value="-nome: String&#10;-sede: String" style="text;strokeColor=none;fillColor=none;align=left;verticalAlign=top;spacingLeft=4;spacingRight=4;overflow=hidden;rotatable=0;points=[[0,0.5],[1,0.5]];portConstraint=eastwest;" parent="SDYkrErsh-1BL4w2dOnM-5" vertex="1">
                    <mxGeometry y="26" width="280" height="84" as="geometry"/>
                </mxCell>
                <mxCell id="SDYkrErsh-1BL4w2dOnM-7" value="" style="line;strokeWidth=1;fillColor=none;align=left;verticalAlign=middle;spacingTop=-1;spacingLeft=3;spacingRight=3;rotatable=0;labelPosition=right;points=[];portConstraint=eastwest;" parent="SDYkrErsh-1BL4w2dOnM-5" vertex="1">
                    <mxGeometry y="110" width="280" height="8" as="geometry"/>
                </mxCell>
                <mxCell id="SDYkrErsh-1BL4w2dOnM-8" value="+Squadra(nome: String, sede: String)&#10;&#10;+getNome(): String&#10;+getSede(): String&#10;&#10;+setNome(nome: String): void&#10;+setSede(sede: String): void" style="text;strokeColor=none;fillColor=none;align=left;verticalAlign=top;spacingLeft=4;spacingRight=4;overflow=hidden;rotatable=0;points=[[0,0.5],[1,0.5]];portConstraint=eastwest;" parent="SDYkrErsh-1BL4w2dOnM-5" vertex="1">
                    <mxGeometry y="118" width="280" height="112" as="geometry"/>
                </mxCell>
                <mxCell id="SDYkrErsh-1BL4w2dOnM-9" value="Contratto" style="swimlane;fontStyle=1;align=center;verticalAlign=top;childLayout=stackLayout;horizontal=1;startSize=26;horizontalStack=0;resizeParent=1;resizeParentMax=0;resizeLast=0;collapsible=1;marginBottom=0;" parent="1" vertex="1">
                    <mxGeometry x="-70" y="620" width="620" height="280" as="geometry"/>
                </mxCell>
                <mxCell id="SDYkrErsh-1BL4w2dOnM-10" value="-atleta: Atleta&#10;-squadra: Squadra&#10;-dataStipula: GregorianCalendar&#10;-dataScadenza: GregorianCalendar" style="text;strokeColor=none;fillColor=none;align=left;verticalAlign=top;spacingLeft=4;spacingRight=4;overflow=hidden;rotatable=0;points=[[0,0.5],[1,0.5]];portConstraint=eastwest;" parent="SDYkrErsh-1BL4w2dOnM-9" vertex="1">
                    <mxGeometry y="26" width="620" height="84" as="geometry"/>
                </mxCell>
                <mxCell id="SDYkrErsh-1BL4w2dOnM-11" value="" style="line;strokeWidth=1;fillColor=none;align=left;verticalAlign=middle;spacingTop=-1;spacingLeft=3;spacingRight=3;rotatable=0;labelPosition=right;points=[];portConstraint=eastwest;" parent="SDYkrErsh-1BL4w2dOnM-9" vertex="1">
                    <mxGeometry y="110" width="620" height="8" as="geometry"/>
                </mxCell>
                <mxCell id="SDYkrErsh-1BL4w2dOnM-12" value="+Contratto(atleta: Atleta, squadra: Squadra, dataStipula: GregorianCalendar, dataScadenza: GregorianCalendar)&#10;&#10;+getAtleta(): Atleta&#10;+getSquadra(): Squadra&#10;+getDataStipula(): GregorianCalendar&#10;+getDataScadenza(): GregorianCalendar&#10;&#10;-setAtleta(atleta: Atleta): void&#10;-setSquadra(squadra: Squadra): void&#10;-setDataStipula(dataStipula: GregorianCalendar): void&#10;-setDataScadenza(dataScadenza: GregorianCalendar): void" style="text;strokeColor=none;fillColor=none;align=left;verticalAlign=top;spacingLeft=4;spacingRight=4;overflow=hidden;rotatable=0;points=[[0,0.5],[1,0.5]];portConstraint=eastwest;" parent="SDYkrErsh-1BL4w2dOnM-9" vertex="1">
                    <mxGeometry y="118" width="620" height="162" as="geometry"/>
                </mxCell>
                <mxCell id="SDYkrErsh-1BL4w2dOnM-14" style="edgeStyle=orthogonalEdgeStyle;rounded=0;orthogonalLoop=1;jettySize=auto;html=1;" parent="1" source="SDYkrErsh-1BL4w2dOnM-10" target="SDYkrErsh-1BL4w2dOnM-1" edge="1">
                    <mxGeometry relative="1" as="geometry"/>
                </mxCell>
                <mxCell id="SDYkrErsh-1BL4w2dOnM-15" style="edgeStyle=orthogonalEdgeStyle;rounded=0;orthogonalLoop=1;jettySize=auto;html=1;" parent="1" source="SDYkrErsh-1BL4w2dOnM-10" target="SDYkrErsh-1BL4w2dOnM-5" edge="1">
                    <mxGeometry relative="1" as="geometry"/>
                </mxCell>
            </root>
        </mxGraphModel>
    </diagram>
</mxfile>